<?xml version="1.0" standalone="no"?>
<!DOCTYPE svg PUBLIC "-//W3C//DTD SVG 20010904//EN"
 "http://www.w3.org/TR/2001/REC-SVG-20010904/DTD/svg10.dtd">
<svg version="1.0" xmlns="http://www.w3.org/2000/svg"
 width="1024.000000pt" height="1024.000000pt" viewBox="0 0 1024.000000 1024.000000"
 preserveAspectRatio="xMidYMid meet">
<metadata>
Created by potrace 1.11, written by Peter Selinger 2001-2013
</metadata>
<g transform="translate(0.000000,1024.000000) scale(0.100000,-0.100000)"
fill="#000000" stroke="none">
<path d="M3710 10231 c-8 -5 -62 -19 -120 -31 -489 -103 -1126 -513 -1584
-1018 -172 -190 -293 -344 -305 -389 -37 -135 135 -257 243 -172 14 11 74 79
132 152 138 169 403 434 567 565 269 215 611 413 858 496 174 59 185 48 34
-35 -489 -267 -877 -617 -1227 -1110 -282 -397 -453 -790 -524 -1204 -19 -116
-31 -404 -16 -414 14 -8 -148 -500 -165 -501 -20 0 -80 88 -112 165 -52 123
-66 217 -65 430 0 133 5 217 17 281 20 109 12 148 -38 199 -43 42 -97 58 -147
45 -78 -22 -117 -78 -136 -195 -35 -207 -40 -385 -17 -558 20 -149 48 -244
110 -372 60 -125 146 -228 247 -296 32 -22 58 -46 58 -53 0 -7 -14 -78 -31
-157 -30 -145 -72 -388 -84 -489 -3 -30 -8 -67 -11 -82 l-5 -26 -297 -4 c-283
-4 -300 -5 -357 -28 -71 -28 -149 -101 -185 -175 l-25 -50 -3 -555 -3 -556
-75 -12 c-163 -26 -306 -128 -377 -271 -20 -40 -39 -88 -43 -107 -3 -19 -10
-34 -15 -34 -5 0 -9 -328 -9 -770 0 -442 4 -770 9 -770 5 0 12 -15 15 -32 12
-63 64 -155 126 -221 75 -81 182 -139 287 -156 49 -9 369 -11 1138 -9 l1070 3
66 22 c136 47 259 162 316 297 41 98 44 170 41 921 -3 704 -4 711 -26 776 -62
186 -222 321 -414 351 l-78 13 0 542 c0 522 -1 544 -21 597 -25 68 -91 143
-156 178 -71 39 -149 48 -415 48 -131 0 -238 3 -238 7 0 28 58 370 86 505 19
91 34 169 34 171 0 2 27 8 61 11 473 54 945 527 1476 1481 239 429 682 1299
782 1535 108 254 171 486 171 623 0 79 -24 180 -55 232 -50 86 -169 175 -251
191 -19 3 -34 10 -34 15 0 11 -260 11 -280 0z m18 -348 c-10 -2 -26 -2 -35 0
-10 3 -2 5 17 5 19 0 27 -2 18 -5z m-2538 -4933 l0 -180 -170 0 -170 0 0 180
0 180 170 0 170 0 0 -180z m0 -685 l0 -175 -170 0 -170 0 0 175 0 175 170 0
170 0 0 -175z m1168 -577 c21 -68 22 -91 22 -345 l0 -273 -1020 0 -1020 0 0
285 c0 305 1 315 52 362 12 12 34 26 48 32 16 6 364 10 960 10 l935 1 23 -72z
m20 -1240 c-3 -262 -5 -299 -23 -350 l-20 -58 -930 0 -931 0 -44 23 c-25 12
-55 37 -67 56 -23 33 -23 39 -23 327 l0 294 1021 0 1020 0 -3 -292z"/>
<path d="M1444 8327 c-12 -7 -36 -25 -55 -41 -30 -25 -34 -34 -37 -90 -3 -51
0 -66 20 -96 73 -107 203 -108 275 -1 66 98 -15 242 -136 241 -25 -1 -55 -6
-67 -13z"/>
<path d="M4660 8179 c-458 -49 -859 -369 -1005 -803 -64 -192 -59 85 -62
-3113 l-3 -2903 -973 -2 -972 -3 -67 -33 c-102 -50 -161 -128 -188 -246 -27
-122 75 -401 215 -587 182 -243 462 -417 743 -462 39 -6 72 -15 72 -19 0 -5
1022 -8 2270 -8 1249 0 2270 3 2270 8 0 4 33 13 73 19 148 24 334 101 466 193
245 173 413 420 483 713 l23 97 985 2 985 3 56 26 c32 15 75 45 98 68 40 40
91 127 91 156 0 8 5 15 10 15 7 0 10 978 10 2915 0 1626 -4 2915 -9 2915 -4 0
-11 24 -15 54 -3 29 -17 93 -31 141 -107 370 -406 679 -770 799 -198 65 -5 60
-2450 62 -1253 1 -2257 -2 -2305 -7z m3312 -326 c-40 -2 -103 -2 -140 0 -37 2
-4 3 73 3 77 0 107 -2 67 -3z m1081 0 c-51 -2 -135 -2 -185 0 -51 1 -10 3 92
3 102 0 143 -2 93 -3z m854 -5065 c-1 -788 -2 -146 -2 1427 0 1573 1 2218 2
1433 2 -784 2 -2071 0 -2860z m-7847 -1799 c0 -47 56 -206 103 -292 57 -103
152 -220 231 -286 36 -30 64 -56 62 -58 -8 -9 -179 38 -239 65 -224 102 -389
287 -466 521 -12 36 -21 68 -21 73 0 4 74 8 165 8 l165 0 0 -31z m4870 -642
c29 -3 19 -4 -27 -4 -40 0 -70 4 -67 8 2 5 12 5 21 2 12 -5 14 -3 8 8 -7 11
-6 12 6 2 8 -6 35 -14 59 -16z"/>
</g>
</svg>
